<svg width="590" height="534" viewBox="0 0 590 534" fill="none" xmlns="http://www.w3.org/2000/svg">
<path d="M568.981 289.659C570.381 287.856 571.192 285.667 571.304 283.388C571.416 281.108 570.824 278.85 569.608 276.919C566.711 272.243 561.341 269.719 556.055 268.109C550.724 266.48 545.208 265.535 539.639 265.297C534.472 265.077 530.931 264.789 526.95 261.468C525.958 255.281 526.352 248.951 528.102 242.935C529.203 239.208 531.49 235.091 535.404 234.82C539.317 234.549 542.18 238.428 542.451 242.206C542.722 245.984 540.96 249.576 539.266 252.964C541.813 253.866 544.517 254.237 547.212 254.053C549.907 253.87 552.536 253.136 554.937 251.897C559.747 249.387 563.831 245.683 566.796 241.139C568.727 238.344 570.489 235.209 573.471 233.583C576.452 231.957 581.111 232.872 581.941 236.175C582.144 237.953 581.731 239.747 580.772 241.257C578.623 245.528 576.124 249.614 573.301 253.472C572.047 255.166 570.743 257.657 572.2 259.215C572.328 259.362 572.484 259.483 572.657 259.571C574.691 258.02 576.459 256.149 577.892 254.031C578.969 252.013 580.5 250.273 582.365 248.949C584.381 247.865 587.447 248.474 588.023 250.643C588.149 251.828 587.874 253.02 587.244 254.031C585.804 256.894 578.773 264.094 576.91 266.686C576.351 267.754 576.147 268.973 577.113 269.499C577.333 269.61 577.579 269.657 577.824 269.634C578.18 269.177 578.536 268.702 578.858 268.228C579.946 266.213 581.482 264.474 583.347 263.146C585.346 262.061 588.43 262.671 588.989 264.84C589.123 266.025 588.848 267.22 588.209 268.228C586.894 270.333 585.379 272.308 583.686 274.124C580.247 280.256 574.639 285.254 568.981 289.659Z" fill="#5082EF"/>
<path d="M482.395 333.621C480.277 334.113 478.176 334.57 476.059 334.977C471.807 335.824 467.3 336.501 463.2 335.061C460.677 334.176 458.491 332.528 456.944 330.346C455.397 328.164 454.566 325.555 454.566 322.881C454.566 320.206 455.397 317.597 456.944 315.415C458.491 313.233 460.677 311.586 463.2 310.7L464.149 310.412L463.607 310.547L464.573 310.276C470.462 308.387 476.082 305.745 481.294 302.416C479.226 307.391 478.254 312.754 478.444 318.138C478.634 323.523 479.982 328.804 482.395 333.621V333.621Z" fill="#EDF3FD"/>
<path d="M560.325 296.859C539.726 312.585 516.328 324.255 491.374 331.249C486.292 319.696 485.123 306.634 490.459 295.791C497.786 289.814 504.729 283.38 511.246 276.529C530.745 270.989 548.839 281.069 560.325 296.859Z" fill="#EDF3FD"/>
<path d="M520.496 267.008L521.648 265.822C527.069 260.316 533.066 254.726 540.639 253.099C548.89 251.304 557.445 254.624 564.577 259.147C569.185 262.078 573.709 265.924 575.199 271.108C577.182 278.139 573.268 284.847 567.965 290.336C555.598 276.309 538.488 266.839 520.496 267.008Z" fill="#EDF3FD"/>
<path d="M562.086 295.588L560.392 296.926C548.906 281.069 530.813 270.989 511.263 276.597C514.363 273.412 517.446 270.21 520.513 267.076C538.504 266.907 555.615 276.377 567.948 290.404C566.108 292.257 564.15 293.988 562.086 295.588V295.588Z" fill="#5082EF"/>
<path d="M491.374 331.317C488.392 332.148 485.393 333.012 482.395 333.621C479.982 328.804 478.634 323.523 478.444 318.139C478.254 312.754 479.226 307.391 481.294 302.416C484.462 300.393 487.522 298.205 490.459 295.859C485.122 306.702 486.291 319.763 491.374 331.317Z" fill="#5082EF"/>
<path d="M271.594 393.881H430.046V280.765H271.594V393.881Z" fill="white"/>
<path d="M466.03 295.012C462.642 295.012 430.047 280.781 430.047 280.781H271.578L307.578 295.012H466.03Z" fill="#CADAFA"/>
<path d="M318.217 287.761H427.115V266.347H318.217V287.761Z" fill="#5082EF"/>
<path d="M390.252 396.846L417.256 453.616L399.823 461.901L371.515 402.403L390.252 396.846Z" fill="#5082EF"/>
<path d="M440.381 482.467C440.651 482.932 440.988 483.354 441.38 483.721C443.278 485.415 446.158 485.263 448.733 485.263C454.149 485.323 459.468 486.71 464.223 489.303C468.978 491.897 473.025 495.616 476.008 500.137C476.291 500.458 476.488 500.846 476.58 501.264C476.671 501.681 476.656 502.116 476.533 502.526C476.257 502.982 475.841 503.338 475.348 503.542C456.592 513.844 437.239 523.02 417.392 531.021C414.986 511.725 423.372 491.683 440.381 482.467Z" fill="#EDF3FD"/>
<path d="M412.038 532.935C411.088 533.14 410.098 533.039 409.209 532.647C407.794 531.71 406.76 530.298 406.295 528.666C402.737 519.924 399.349 511.12 396.13 502.254C395.368 500.171 394.639 498.07 393.894 495.969C389.963 484.946 386.293 473.827 382.882 462.612C387.448 453.261 395.283 445.907 404.905 441.944C408.892 440.562 413.16 440.196 417.323 440.876C425.178 451.632 431.873 463.188 437.297 475.352C437.839 476.571 438.364 477.808 438.89 479.045C416.002 484.991 409.937 509.912 412.038 532.935Z" fill="#EDF3FD"/>
<path d="M438.822 479.045C438.992 479.452 439.178 479.858 439.347 480.282C439.517 480.705 439.669 481.061 439.856 481.451C440.042 481.84 440.194 482.128 440.381 482.467C423.44 491.649 414.969 511.725 417.392 531.021L414.766 532.088C413.886 532.457 412.972 532.74 412.038 532.935C409.937 509.912 416.002 484.991 438.822 479.045Z" fill="#5082EF"/>
<path d="M314.846 531.597L305.664 511.403L334.989 479.045L363.197 490.429L360.757 506.744L314.846 531.597Z" fill="#EDF3FD"/>
<path d="M373.7 405.977L360.214 454.209L341.63 449.008L355.742 398.456L373.7 405.977Z" fill="#5082EF"/>
<path d="M362.129 498.189C362.17 498.728 362.29 499.259 362.484 499.764C363.45 502.136 366.144 503.152 368.465 504.304C373.33 506.683 377.538 510.219 380.72 514.602C383.901 518.985 385.958 524.082 386.71 529.445C386.871 529.766 386.939 530.124 386.909 530.481C386.879 530.838 386.751 531.18 386.539 531.469C386.327 531.758 386.04 531.983 385.708 532.119C385.377 532.255 385.014 532.297 384.66 532.241C363.294 533.511 341.871 533.511 320.504 532.241C326.721 513.707 342.832 499.171 362.129 498.189Z" fill="#EDF3FD"/>
<path d="M305.664 511.403C305.22 509.771 305.376 508.034 306.104 506.507C309.131 497.585 312.344 488.713 315.744 479.892C316.54 477.808 317.353 475.742 318.166 473.675C322.458 462.787 326.976 451.99 331.719 441.283C341.292 437.222 352.021 436.812 361.875 440.131C365.788 441.709 369.246 444.235 371.938 447.484C370.815 460.75 368.299 473.861 364.433 486.601C364.026 487.872 363.62 489.159 363.196 490.43C342.087 479.926 306.053 512.318 305.664 511.403Z" fill="#EDF3FD"/>
<path d="M362.18 494.428C362.18 494.885 362.18 495.326 362.18 495.783V497.037C362.18 497.426 362.18 497.816 362.18 498.189C342.883 499.171 326.603 513.724 320.555 532.173L317.743 532.003C316.783 531.961 315.83 531.825 314.896 531.597C322.842 509.912 339.021 489.989 362.18 494.428Z" fill="#5082EF"/>
<path d="M307.578 408.112H466.029V294.995H307.578V408.112Z" fill="#EDF3FD"/>
<path d="M402.585 308.43H402.636C402.664 308.43 402.687 308.407 402.687 308.379V307.43C402.687 307.402 402.664 307.379 402.636 307.379H402.585C402.557 307.379 402.534 307.402 402.534 307.43V308.379C402.534 308.407 402.557 308.43 402.585 308.43Z" fill="white"/>
<path d="M307.578 408.129L271.578 393.898V280.781L307.578 295.012V408.129Z" fill="#B0C7F8"/>
<path d="M200.052 383.259C199.341 385.428 199.314 387.763 199.974 389.948C200.635 392.133 201.951 394.062 203.745 395.474C208.048 398.862 213.91 399.472 219.466 399.201C225.032 398.931 230.541 397.963 235.866 396.321C240.812 394.779 244.235 393.864 249.097 395.643C252.098 401.137 253.834 407.232 254.179 413.482C254.416 417.362 253.603 422.038 250.045 423.647C246.488 425.257 242.422 422.529 240.931 419.056C239.44 415.583 239.847 411.619 240.304 407.858C237.602 407.869 234.931 408.432 232.455 409.513C229.978 410.594 227.749 412.169 225.904 414.143C222.25 418.14 219.663 422.993 218.382 428.255C217.518 431.542 216.908 435.032 214.655 437.624C212.402 440.216 207.709 440.86 205.863 438.013C205.059 436.398 204.837 434.555 205.236 432.795C205.827 428.054 206.801 423.369 208.15 418.785C208.76 416.752 209.149 413.974 207.252 413.008C207.084 412.914 206.9 412.851 206.71 412.822C205.319 414.969 204.284 417.325 203.643 419.802C203.301 422.061 202.443 424.212 201.136 426.087C199.611 427.781 196.477 428.272 195.224 426.358C194.689 425.27 194.545 424.032 194.817 422.851C195.207 419.666 199.357 410.535 200.272 407.468C200.441 406.266 200.272 405.046 199.137 404.893C198.895 404.858 198.648 404.893 198.425 404.995C198.245 405.537 198.075 406.102 197.917 406.689C197.571 408.948 196.714 411.098 195.41 412.974C193.885 414.668 190.734 415.16 189.497 413.245C188.966 412.157 188.817 410.922 189.074 409.738C189.614 407.317 190.379 404.952 191.361 402.674C192.665 395.897 196.274 389.29 200.052 383.259Z" fill="#5082EF"/>
<path d="M266.817 312.682C268.647 311.513 270.477 310.378 272.323 309.294C276.05 307.057 280.065 304.906 284.402 304.889C287.073 304.881 289.681 305.7 291.868 307.234C294.054 308.768 295.712 310.942 296.612 313.456C297.513 315.971 297.613 318.703 296.898 321.276C296.183 323.849 294.688 326.138 292.619 327.827C292.348 328.014 292.077 328.2 291.823 328.403L292.263 328.099C292.009 328.302 291.738 328.488 291.467 328.675C286.554 332.436 282.152 336.821 278.371 341.719C278.64 336.334 277.747 330.954 275.753 325.944C273.76 320.934 270.712 316.411 266.817 312.682V312.682Z" fill="#EDF3FD"/>
<path d="M205.812 373.484C219.9 351.734 237.999 332.865 259.143 317.883C267.817 327.048 273.305 338.958 271.933 350.952C267.06 359.073 262.703 367.492 258.888 376.161C242.388 387.952 221.957 384.547 205.812 373.484Z" fill="#EDF3FD"/>
<path d="M253.383 388.24C253.145 388.731 252.925 389.24 252.688 389.748C249.435 396.761 245.674 404.029 239.135 408.112C231.969 412.585 222.787 412.347 214.553 410.484C209.234 409.281 203.694 407.231 200.526 402.793C196.29 396.863 197.714 389.24 200.865 382.26C217.196 391.306 236.492 394.457 253.383 388.24Z" fill="#EDF3FD"/>
<path d="M204.592 375.348L205.812 373.484C221.957 384.547 242.388 387.952 258.889 376.161C257.025 380.21 255.213 384.259 253.383 388.24C236.442 394.457 217.197 391.306 200.865 382.26C201.952 379.875 203.197 377.566 204.592 375.348V375.348Z" fill="#5082EF"/>
<path d="M259.143 317.883C261.667 316.104 264.225 314.359 266.817 312.682C270.71 316.409 273.756 320.929 275.749 325.936C277.743 330.943 278.637 336.32 278.371 341.702C276.056 344.665 273.907 347.753 271.933 350.952C273.305 338.958 267.817 327.048 259.143 317.883Z" fill="#5082EF"/>
<path d="M331.228 328.031V375.11C331.228 382.446 335.209 388.477 340.325 389.189C340.658 389.206 340.992 389.206 341.325 389.189H433.265C438.838 389.189 443.429 382.853 443.429 375.043V328.031C443.429 320.221 438.906 313.885 433.265 313.885H341.325C335.734 313.885 331.228 320.221 331.228 328.031Z" fill="#5082EF"/>
<path d="M466.03 163.023C462.642 163.023 430.047 148.792 430.047 148.792H271.578L307.578 163.023H466.03Z" fill="#CADAFA"/>
<path d="M307.578 276.208H466.029V163.091H307.578V276.208Z" fill="#EDF3FD"/>
<path d="M307.578 276.207L271.578 261.977V148.86L307.578 163.091V276.207Z" fill="#B0C7F8"/>
<path d="M285.046 223.791C291.783 223.791 297.244 216.783 297.244 208.137C297.244 199.492 291.783 192.484 285.046 192.484C278.31 192.484 272.849 199.492 272.849 208.137C272.849 216.783 278.31 223.791 285.046 223.791Z" fill="#E5ECFD"/>
<path d="M292.737 195.99C292.907 196.821 294.872 206.799 289.129 214.44C287.825 216.242 286.152 217.746 284.221 218.85C282.29 219.954 280.145 220.634 277.931 220.843C279.165 221.962 280.631 222.795 282.224 223.281C283.817 223.767 285.498 223.895 287.147 223.656C292.534 222.571 296.227 216.879 297.125 211.17C297.505 208.473 297.311 205.727 296.555 203.111C295.798 200.495 294.498 198.068 292.737 195.99Z" fill="#5082EF"/>
<path d="M422.067 202.682C432.91 199.497 443.379 202.598 445.429 209.611C445.683 210.475 445.803 211.372 445.785 212.271C441.736 207.934 433.266 206.426 424.558 208.984C415.054 211.78 408.413 218.455 408.294 224.791C407.313 223.759 406.588 222.511 406.176 221.148C404.11 214.135 411.225 205.867 422.067 202.682Z" fill="#5082EF"/>
<path d="M350.846 208.985C342.681 206.579 334.718 207.765 330.415 211.492C330.458 210.857 330.56 210.227 330.72 209.611C332.787 202.598 343.24 199.447 354.082 202.682C364.924 205.918 372.057 214.135 369.99 221.148C369.463 222.876 368.444 224.412 367.059 225.57C367.499 219.014 360.74 211.882 350.846 208.985Z" fill="#5082EF"/>
<path d="M405.936 352.117C405.936 352.88 405.303 353.513 404.54 353.513H382.769C382.155 355.69 380.164 357.308 377.764 357.308C375.382 357.308 373.373 355.69 372.759 353.513H370.116C369.353 353.513 368.721 352.88 368.721 352.117C368.721 351.354 369.353 350.721 370.116 350.721H372.759C373.373 348.544 375.382 346.925 377.764 346.925C380.164 346.925 382.155 348.544 382.769 350.721H404.54C405.303 350.721 405.936 351.354 405.936 352.117Z" fill="white"/>
<path d="M405.936 365.421C405.936 366.203 405.303 366.817 404.54 366.817H401.898C401.284 369.013 399.274 370.613 396.893 370.613C394.511 370.613 392.501 369.013 391.887 366.817H370.116C369.353 366.817 368.721 366.203 368.721 365.421C368.721 364.658 369.353 364.026 370.116 364.026H391.887C392.501 361.849 394.511 360.23 396.893 360.23C399.274 360.23 401.284 361.849 401.898 364.026H404.54C405.303 364.026 405.936 364.658 405.936 365.421Z" fill="white"/>
<path d="M405.936 338.813C405.936 339.576 405.303 340.208 404.54 340.208H401.898C401.284 342.385 399.274 344.004 396.893 344.004C394.511 344.004 392.501 342.385 391.887 340.208H370.116C369.353 340.208 368.721 339.576 368.721 338.813C368.721 338.031 369.353 337.417 370.116 337.417H391.887C392.501 335.221 394.511 333.621 396.893 333.621C399.274 333.621 401.284 335.221 401.898 337.417H404.54C405.303 337.417 405.936 338.031 405.936 338.813Z" fill="white"/>
<path d="M30.5967 0.393311C14.0281 0.393311 0.59668 13.8248 0.59668 30.3933V156.393C0.59668 172.962 14.0281 186.393 30.5967 186.393H141.181C150.873 206.15 176.025 215.293 216.321 216.714C219.423 216.823 220.512 212.734 217.85 211.137C206.905 204.57 198.099 197.535 193.311 186.393H217.856C234.425 186.393 247.856 172.962 247.856 156.393V30.3933C247.856 13.8248 234.425 0.393311 217.856 0.393311H30.5967Z" fill="white"/>
<path d="M36.0366 81.2249V55.8449H47.0526C49.8366 55.8449 51.9846 56.5169 53.4966 57.8609C55.0086 59.1809 55.7646 61.0409 55.7646 63.4409C55.7646 65.3369 55.2726 66.9089 54.2887 68.1569C53.3047 69.3809 51.8886 70.2089 50.0406 70.6409C51.2646 71.0249 52.2726 71.9489 53.0646 73.4129L57.3126 81.2249H52.2366L47.8446 73.1249C47.4126 72.3329 46.8966 71.7929 46.2966 71.5049C45.7206 71.2169 44.9766 71.0729 44.0646 71.0729H40.6446V81.2249H36.0366ZM40.6446 67.6529H46.2606C49.6206 67.6529 51.3007 66.2849 51.3007 63.5489C51.3007 60.8369 49.6206 59.4809 46.2606 59.4809H40.6446V67.6529ZM68.5033 81.5849C66.5113 81.5849 64.7953 81.2129 63.3553 80.4689C61.9153 79.7249 60.7993 78.6689 60.0073 77.3009C59.2393 75.9329 58.8553 74.3129 58.8553 72.4409C58.8553 70.6169 59.2273 69.0209 59.9713 67.6529C60.7393 66.2849 61.7833 65.2169 63.1033 64.4489C64.4473 63.6569 65.9713 63.2609 67.6753 63.2609C70.1713 63.2609 72.1393 64.0529 73.5793 65.6369C75.0433 67.2209 75.7753 69.3809 75.7753 72.1169V73.4489H63.1753C63.5113 76.5929 65.3113 78.1649 68.5753 78.1649C69.5593 78.1649 70.5433 78.0209 71.5273 77.7329C72.5113 77.4209 73.4113 76.9409 74.2273 76.2929L75.4873 79.3169C74.6473 80.0129 73.5913 80.5649 72.3193 80.9729C71.0473 81.3809 69.7753 81.5849 68.5033 81.5849ZM67.8553 66.3209C66.5353 66.3209 65.4673 66.7289 64.6513 67.5449C63.8353 68.3609 63.3433 69.4649 63.1753 70.8569H72.0313C71.9353 69.3929 71.5273 68.2769 70.8073 67.5089C70.1113 66.7169 69.1273 66.3209 67.8553 66.3209ZM85.135 81.5849C83.863 81.5849 82.723 81.3449 81.715 80.8649C80.731 80.3609 79.951 79.6889 79.375 78.8489C78.823 78.0089 78.547 77.0609 78.547 76.0049C78.547 74.7089 78.883 73.6889 79.555 72.9449C80.227 72.1769 81.319 71.6249 82.831 71.2889C84.343 70.9529 86.371 70.7849 88.915 70.7849H90.175V70.0289C90.175 68.8289 89.911 67.9649 89.383 67.4369C88.855 66.9089 87.967 66.6449 86.719 66.6449C85.735 66.6449 84.727 66.8009 83.695 67.1129C82.663 67.4009 81.619 67.8569 80.563 68.4809L79.267 65.4209C79.891 64.9889 80.623 64.6169 81.463 64.3049C82.327 63.9689 83.227 63.7169 84.163 63.5489C85.123 63.3569 86.023 63.2609 86.863 63.2609C89.431 63.2609 91.339 63.8609 92.587 65.0609C93.835 66.2369 94.459 68.0729 94.459 70.5689V81.2249H90.247V78.4169C89.839 79.4009 89.191 80.1809 88.303 80.7569C87.415 81.3089 86.359 81.5849 85.135 81.5849ZM86.071 78.4889C87.247 78.4889 88.219 78.0809 88.987 77.2649C89.779 76.4489 90.175 75.4169 90.175 74.1689V73.3769H88.951C86.695 73.3769 85.123 73.5569 84.235 73.9169C83.371 74.2529 82.939 74.8769 82.939 75.7889C82.939 76.5809 83.215 77.2289 83.767 77.7329C84.319 78.2369 85.087 78.4889 86.071 78.4889ZM105.795 81.5849C104.259 81.5849 102.903 81.2129 101.727 80.4689C100.575 79.7249 99.6745 78.6689 99.0265 77.3009C98.3785 75.9089 98.0545 74.2769 98.0545 72.4049C98.0545 70.5089 98.3785 68.8889 99.0265 67.5449C99.6745 66.1769 100.575 65.1209 101.727 64.3769C102.903 63.6329 104.259 63.2609 105.795 63.2609C107.043 63.2609 108.171 63.5369 109.179 64.0889C110.187 64.6409 110.943 65.3729 111.447 66.2849V55.8449H115.947V81.2249H111.555V78.3089C111.075 79.3169 110.319 80.1209 109.287 80.7209C108.255 81.2969 107.091 81.5849 105.795 81.5849ZM107.055 78.1649C108.399 78.1649 109.479 77.6849 110.295 76.7249C111.111 75.7409 111.519 74.3009 111.519 72.4049C111.519 70.4849 111.111 69.0569 110.295 68.1209C109.479 67.1609 108.399 66.6809 107.055 66.6809C105.711 66.6809 104.631 67.1609 103.815 68.1209C102.999 69.0569 102.591 70.4849 102.591 72.4049C102.591 74.3009 102.999 75.7409 103.815 76.7249C104.631 77.6849 105.711 78.1649 107.055 78.1649ZM122.196 87.7049L125.436 80.5049L118.128 63.6209H122.916L127.848 75.9329L132.888 63.6209H137.424L126.84 87.7049H122.196ZM157.329 81.5849C152.673 81.5849 150.345 79.2809 150.345 74.6729V67.0049H146.961V63.6209H150.345V58.3649H154.845V63.6209H160.173V67.0049H154.845V74.4209C154.845 75.5729 155.097 76.4369 155.601 77.0129C156.105 77.5889 156.921 77.8769 158.049 77.8769C158.385 77.8769 158.733 77.8409 159.093 77.7689C159.453 77.6729 159.825 77.5769 160.209 77.4809L160.893 80.7929C160.461 81.0329 159.909 81.2249 159.237 81.3689C158.589 81.5129 157.953 81.5849 157.329 81.5849ZM170.933 81.5849C169.109 81.5849 167.525 81.2129 166.181 80.4689C164.837 79.7249 163.793 78.6689 163.049 77.3009C162.305 75.9089 161.933 74.2769 161.933 72.4049C161.933 70.5329 162.305 68.9129 163.049 67.5449C163.793 66.1769 164.837 65.1209 166.181 64.3769C167.525 63.6329 169.109 63.2609 170.933 63.2609C172.757 63.2609 174.341 63.6329 175.685 64.3769C177.029 65.1209 178.073 66.1769 178.817 67.5449C179.561 68.9129 179.933 70.5329 179.933 72.4049C179.933 74.2769 179.561 75.9089 178.817 77.3009C178.073 78.6689 177.029 79.7249 175.685 80.4689C174.341 81.2129 172.757 81.5849 170.933 81.5849ZM170.933 78.1649C172.277 78.1649 173.357 77.6849 174.173 76.7249C174.989 75.7409 175.397 74.3009 175.397 72.4049C175.397 70.4849 174.989 69.0569 174.173 68.1209C173.357 67.1609 172.277 66.6809 170.933 66.6809C169.589 66.6809 168.509 67.1609 167.693 68.1209C166.877 69.0569 166.469 70.4849 166.469 72.4049C166.469 74.3009 166.877 75.7409 167.693 76.7249C168.509 77.6849 169.589 78.1649 170.933 78.1649ZM41.4006 130.585C40.1286 130.585 38.9886 130.345 37.9806 129.865C36.9966 129.361 36.2166 128.689 35.6406 127.849C35.0886 127.009 34.8126 126.061 34.8126 125.005C34.8126 123.709 35.1486 122.689 35.8206 121.945C36.4926 121.177 37.5846 120.625 39.0966 120.289C40.6086 119.953 42.6366 119.785 45.1806 119.785H46.4406V119.029C46.4406 117.829 46.1766 116.965 45.6486 116.437C45.1206 115.909 44.2326 115.645 42.9846 115.645C42.0006 115.645 40.9926 115.801 39.9606 116.113C38.9286 116.401 37.8846 116.857 36.8286 117.481L35.5326 114.421C36.1566 113.989 36.8886 113.617 37.7286 113.305C38.5926 112.969 39.4926 112.717 40.4286 112.549C41.3886 112.357 42.2886 112.261 43.1286 112.261C45.6966 112.261 47.6046 112.861 48.8526 114.061C50.1006 115.237 50.7246 117.073 50.7246 119.569V130.225H46.5126V127.417C46.1046 128.401 45.4566 129.181 44.5686 129.757C43.6806 130.309 42.6246 130.585 41.4006 130.585ZM42.3366 127.489C43.5126 127.489 44.4846 127.081 45.2526 126.265C46.0446 125.449 46.4406 124.417 46.4406 123.169V122.377H45.2166C42.9606 122.377 41.3886 122.557 40.5006 122.917C39.6366 123.253 39.2046 123.877 39.2046 124.789C39.2046 125.581 39.4806 126.229 40.0326 126.733C40.5846 127.237 41.3526 127.489 42.3366 127.489ZM61.6641 130.585C57.3441 130.585 55.1841 128.161 55.1841 123.313V112.621H59.6841V123.385C59.6841 124.633 59.9361 125.557 60.4401 126.157C60.9441 126.757 61.7481 127.057 62.8521 127.057C64.0521 127.057 65.0361 126.649 65.8041 125.833C66.5721 124.993 66.9561 123.889 66.9561 122.521V112.621H71.4561V130.225H67.0641V127.597C65.8881 129.589 64.0881 130.585 61.6641 130.585ZM84.2038 130.585C79.5478 130.585 77.2198 128.281 77.2198 123.673V116.005H73.8358V112.621H77.2198V107.365H81.7198V112.621H87.0478V116.005H81.7198V123.421C81.7198 124.573 81.9718 125.437 82.4758 126.013C82.9798 126.589 83.7958 126.877 84.9238 126.877C85.2598 126.877 85.6078 126.841 85.9678 126.769C86.3278 126.673 86.6998 126.577 87.0838 126.481L87.7678 129.793C87.3358 130.033 86.7838 130.225 86.1118 130.369C85.4638 130.513 84.8278 130.585 84.2038 130.585ZM97.8084 130.585C95.9844 130.585 94.4004 130.213 93.0564 129.469C91.7124 128.725 90.6684 127.669 89.9244 126.301C89.1804 124.909 88.8084 123.277 88.8084 121.405C88.8084 119.533 89.1804 117.913 89.9244 116.545C90.6684 115.177 91.7124 114.121 93.0564 113.377C94.4004 112.633 95.9844 112.261 97.8084 112.261C99.6324 112.261 101.216 112.633 102.56 113.377C103.904 114.121 104.948 115.177 105.692 116.545C106.436 117.913 106.808 119.533 106.808 121.405C106.808 123.277 106.436 124.909 105.692 126.301C104.948 127.669 103.904 128.725 102.56 129.469C101.216 130.213 99.6324 130.585 97.8084 130.585ZM97.8084 127.165C99.1524 127.165 100.232 126.685 101.048 125.725C101.864 124.741 102.272 123.301 102.272 121.405C102.272 119.485 101.864 118.057 101.048 117.121C100.232 116.161 99.1524 115.681 97.8084 115.681C96.4644 115.681 95.3844 116.161 94.5684 117.121C93.7524 118.057 93.3444 119.485 93.3444 121.405C93.3444 123.301 93.7524 124.741 94.5684 125.725C95.3844 126.685 96.4644 127.165 97.8084 127.165ZM110.595 130.225V112.621H114.987V115.321C115.515 114.361 116.247 113.617 117.183 113.089C118.119 112.537 119.199 112.261 120.423 112.261C123.063 112.261 124.791 113.413 125.607 115.717C126.159 114.637 126.951 113.797 127.983 113.197C129.015 112.573 130.191 112.261 131.511 112.261C135.471 112.261 137.451 114.673 137.451 119.497V130.225H132.951V119.677C132.951 118.333 132.723 117.349 132.267 116.725C131.835 116.101 131.091 115.789 130.035 115.789C128.859 115.789 127.935 116.209 127.263 117.049C126.591 117.865 126.255 119.005 126.255 120.469V130.225H121.755V119.677C121.755 118.333 121.527 117.349 121.071 116.725C120.639 116.101 119.907 115.789 118.875 115.789C117.699 115.789 116.775 116.209 116.103 117.049C115.431 117.865 115.095 119.005 115.095 120.469V130.225H110.595ZM147.889 130.585C146.617 130.585 145.477 130.345 144.469 129.865C143.485 129.361 142.705 128.689 142.129 127.849C141.577 127.009 141.301 126.061 141.301 125.005C141.301 123.709 141.637 122.689 142.309 121.945C142.981 121.177 144.073 120.625 145.585 120.289C147.097 119.953 149.125 119.785 151.669 119.785H152.929V119.029C152.929 117.829 152.665 116.965 152.137 116.437C151.609 115.909 150.721 115.645 149.473 115.645C148.489 115.645 147.481 115.801 146.449 116.113C145.417 116.401 144.373 116.857 143.317 117.481L142.021 114.421C142.645 113.989 143.377 113.617 144.217 113.305C145.081 112.969 145.981 112.717 146.917 112.549C147.877 112.357 148.777 112.261 149.617 112.261C152.185 112.261 154.093 112.861 155.341 114.061C156.589 115.237 157.213 117.073 157.213 119.569V130.225H153.001V127.417C152.593 128.401 151.945 129.181 151.057 129.757C150.169 130.309 149.113 130.585 147.889 130.585ZM148.825 127.489C150.001 127.489 150.973 127.081 151.741 126.265C152.533 125.449 152.929 124.417 152.929 123.169V122.377H151.705C149.449 122.377 147.877 122.557 146.989 122.917C146.125 123.253 145.693 123.877 145.693 124.789C145.693 125.581 145.969 126.229 146.521 126.733C147.073 127.237 147.841 127.489 148.825 127.489ZM169.844 130.585C165.188 130.585 162.86 128.281 162.86 123.673V116.005H159.476V112.621H162.86V107.365H167.36V112.621H172.688V116.005H167.36V123.421C167.36 124.573 167.612 125.437 168.116 126.013C168.62 126.589 169.436 126.877 170.564 126.877C170.9 126.877 171.248 126.841 171.608 126.769C171.968 126.673 172.34 126.577 172.724 126.481L173.408 129.793C172.976 130.033 172.424 130.225 171.752 130.369C171.104 130.513 170.468 130.585 169.844 130.585ZM184.097 130.585C182.105 130.585 180.389 130.213 178.949 129.469C177.509 128.725 176.393 127.669 175.601 126.301C174.833 124.933 174.449 123.313 174.449 121.441C174.449 119.617 174.821 118.021 175.565 116.653C176.333 115.285 177.377 114.217 178.697 113.449C180.041 112.657 181.565 112.261 183.269 112.261C185.765 112.261 187.733 113.053 189.173 114.637C190.637 116.221 191.369 118.381 191.369 121.117V122.449H178.769C179.105 125.593 180.905 127.165 184.169 127.165C185.153 127.165 186.137 127.021 187.121 126.733C188.105 126.421 189.005 125.941 189.821 125.293L191.081 128.317C190.241 129.013 189.185 129.565 187.913 129.973C186.641 130.381 185.369 130.585 184.097 130.585ZM183.449 115.321C182.129 115.321 181.061 115.729 180.245 116.545C179.429 117.361 178.937 118.465 178.769 119.857H187.625C187.529 118.393 187.121 117.277 186.401 116.509C185.705 115.717 184.721 115.321 183.449 115.321ZM195.689 122.701L194.285 104.845H199.829L198.425 122.701H195.689ZM194.537 130.225V125.221H199.577V130.225H194.537Z" fill="#5082EF"/>
</svg>
